<?xml version="1.0" encoding="UTF-8" standalone="no"?>
<svg
   version="1.1"
   id="svg1480"
   sodipodi:docname="dice_empty.svg"
   inkscape:version="1.2.2 (b0a84865, 2022-12-01)"
   xmlns:inkscape="http://www.inkscape.org/namespaces/inkscape"
   xmlns:sodipodi="http://sodipodi.sourceforge.net/DTD/sodipodi-0.dtd"
   xmlns="http://www.w3.org/2000/svg"
   xmlns:svg="http://www.w3.org/2000/svg">
  <sodipodi:namedview
     id="namedview1482"
     pagecolor="#ffffff"
     bordercolor="#000000"
     borderopacity="0.25"
     inkscape:showpageshadow="2"
     inkscape:pageopacity="0.0"
     inkscape:pagecheckerboard="0"
     inkscape:deskcolor="#d1d1d1"
     showgrid="false"
     inkscape:zoom="4.4401135"
     inkscape:cx="-24.999361"
     inkscape:cy="23.310215"
     inkscape:window-width="1680"
     inkscape:window-height="997"
     inkscape:window-x="0"
     inkscape:window-y="25"
     inkscape:window-maximized="0"
     inkscape:current-layer="g1478" />
  <defs
     id="defs1474" />
  <g
     id="g1478"
     transform="translate(-31.305506,-4.7296088)">
    <path
       id="path1476"
       d="m -16.200353,-32.00086 c -10.533323,0 -15.798828,5.267459 -15.798828,15.800781 V 16.24914 c -1e-6,10.49999 5.265505,15.75 15.798828,15.75 h 32.451172 c 10.499989,0 15.75,-5.25001 15.75,-15.75 v -32.449219 c 0,-10.533322 -5.250011,-15.800781 -15.75,-15.800781 z"
       style="fill:#ffffff"
       sodipodi:nodetypes="sssssssss" />
    <g
       id="g768"
       transform="translate(-33.78292,54.052672)">
      <path
         stroke="none"
         fill="#ffffff"
         d="m 54.83292,-69.377014 q 3.95,3.95 3.95,9.6 0,5.55 -3.95,9.55 l -0.05,0.05 -0.05,0.05 -1.95,1.6 -17.4,14.6 q -0.7,0.55 -1.6,0.55 -0.85,0 -1.5,-0.55 l -17.4,-14.6 q -1.05,-0.7 -1.9,-1.6 l -0.1,-0.1 q -4.0999998,-4 -4.0999998,-9.55 0,-5.65 4.0999998,-9.6 3.95,-4 9.6,-4 5.7,0 9.75,4 l 1.6,1.85 1.65,-1.85 q 3.95,-4 9.6,-4 5.7,0 9.75,4"
         id="path766" />
    </g>
  </g>
</svg>
