<?xml version="1.0" encoding="UTF-8" standalone="no"?>
<svg
   version="1.1"
   id="svg770"
   sodipodi:docname="heart.svg"
   inkscape:version="1.2.2 (b0a84865, 2022-12-01)"
   xmlns:inkscape="http://www.inkscape.org/namespaces/inkscape"
   xmlns:sodipodi="http://sodipodi.sourceforge.net/DTD/sodipodi-0.dtd"
   xmlns="http://www.w3.org/2000/svg"
   xmlns:svg="http://www.w3.org/2000/svg">
  <sodipodi:namedview
     id="namedview772"
     pagecolor="#ffffff"
     bordercolor="#000000"
     borderopacity="0.25"
     inkscape:showpageshadow="2"
     inkscape:pageopacity="0.0"
     inkscape:pagecheckerboard="0"
     inkscape:deskcolor="#d1d1d1"
     showgrid="false"
     inkscape:zoom="9.0528861"
     inkscape:cx="-17.176843"
     inkscape:cy="8.2294198"
     inkscape:window-width="1680"
     inkscape:window-height="997"
     inkscape:window-x="0"
     inkscape:window-y="25"
     inkscape:window-maximized="0"
     inkscape:current-layer="svg770" />
  <defs
     id="defs764">
    <linearGradient
       id="linearGradient2902"
       inkscape:swatch="solid">
      <stop
         style="stop-color:#000000;stop-opacity:1;"
         offset="0"
         id="stop2900" />
    </linearGradient>
    <linearGradient
       id="linearGradient2894"
       inkscape:swatch="solid">
      <stop
         style="stop-color:#000000;stop-opacity:1;"
         offset="0"
         id="stop2892" />
    </linearGradient>
  </defs>
  <g
     id="g3636"
     style="fill:#ff0000;fill-opacity:1;stroke:#ffffff;stroke-width:0;stroke-linecap:round;stroke-dasharray:none;stroke-opacity:1;paint-order:markers fill stroke"
     transform="scale(0.96599377)">
    <path
       stroke="none"
       fill="#FFFFFF"
       d="m 21.170354,-16.09148 q 3.972585,3.972583 3.972585,9.6548878 0,5.5817323 -3.972585,9.6046025 l -0.05028,0.050286 -0.05028,0.050286 L 19.108633,4.8777301 1.609148,19.561206 Q 0.90514578,20.11435 0,20.11435 q -0.8548599,0 -1.5085763,-0.553144 L -19.008062,4.8777301 Q -20.064065,4.1737277 -20.918924,3.268582 l -0.100574,-0.1005715 q -4.123442,-4.0228702 -4.123442,-9.6046025 0,-5.682305 4.123442,-9.654888 3.972585,-4.02287 9.654889,-4.02287 5.7325898,0 9.8057458,4.02287 l 1.60914807,1.860577 1.65943393,-1.860577 q 3.9725842,-4.02287 9.6548882,-4.02287 5.73259,0 9.805746,4.02287"
       id="path3634"
       style="fill:#ff0000;fill-opacity:1;stroke:#ffffff;stroke-width:0;stroke-linecap:round;stroke-dasharray:none;stroke-opacity:1;paint-order:markers fill stroke" />
  </g>
  <g
     id="g16862"
     style="fill:#ff0000;fill-opacity:1;stroke:#ffffff;stroke-opacity:1;stroke-width:1.58914909;stroke-dasharray:none;stroke-linecap:round;paint-order:markers fill stroke"
     transform="scale(0.94390137)">
    <path
       stroke="none"
       fill="#FFFFFF"
       d="m 21.05,-16 q 3.95,3.95 3.95,9.6 0,5.55 -3.95,9.55 L 21,3.2 20.95,3.25 19,4.85 1.6,19.45 Q 0.9,20 0,20 -0.85,20 -1.5,19.45 L -18.9,4.85 q -1.05,-0.7 -1.9,-1.6 l -0.1,-0.1 q -4.1,-4 -4.1,-9.55 0,-5.65 4.1,-9.6 3.95,-4 9.6,-4 5.7,0 9.75,4 l 1.6,1.85 L 1.7,-16 q 3.95,-4 9.6,-4 5.7,0 9.75,4"
       id="path16860"
       style="fill:#ff0000;fill-opacity:1;stroke:#ffffff;stroke-opacity:1;stroke-width:1.58914909;stroke-dasharray:none;stroke-linecap:round;paint-order:markers fill stroke" />
  </g>
</svg>
