<?xml version="1.0" encoding="UTF-8" standalone="no"?>
<svg
   version="1.1"
   id="svg770"
   sodipodi:docname="suit_hearts.svg"
   inkscape:version="1.2.2 (b0a84865, 2022-12-01)"
   xmlns:inkscape="http://www.inkscape.org/namespaces/inkscape"
   xmlns:sodipodi="http://sodipodi.sourceforge.net/DTD/sodipodi-0.dtd"
   xmlns="http://www.w3.org/2000/svg"
   xmlns:svg="http://www.w3.org/2000/svg">
  <sodipodi:namedview
     id="namedview772"
     pagecolor="#ffffff"
     bordercolor="#000000"
     borderopacity="0.25"
     inkscape:showpageshadow="2"
     inkscape:pageopacity="0.0"
     inkscape:pagecheckerboard="0"
     inkscape:deskcolor="#d1d1d1"
     showgrid="false"
     inkscape:zoom="4.1889611"
     inkscape:cx="-38.553712"
     inkscape:cy="-6.8035963"
     inkscape:window-width="1680"
     inkscape:window-height="997"
     inkscape:window-x="0"
     inkscape:window-y="25"
     inkscape:window-maximized="1"
     inkscape:current-layer="svg770" />
  <defs
     id="defs764" />
  <g
     id="g768"
     style="fill:#ff0000;stroke:#000000;stroke-width:2;stroke-linejoin:bevel;stroke-dasharray:none;stroke-opacity:1;paint-order:markers fill stroke"
     transform="translate(27.453108,23.1561)">
    <path
       stroke="none"
       fill="#FFFFFF"
       d="m 21.05,-16 q 3.95,3.95 3.95,9.6 0,5.55 -3.95,9.55 L 21,3.2 20.95,3.25 19,4.85 1.6,19.45 Q 0.9,20 0,20 -0.85,20 -1.5,19.45 L -18.9,4.85 q -1.05,-0.7 -1.9,-1.6 l -0.1,-0.1 q -4.1,-4 -4.1,-9.55 0,-5.65 4.1,-9.6 3.95,-4 9.6,-4 5.7,0 9.75,4 l 1.6,1.85 L 1.7,-16 q 3.95,-4 9.6,-4 5.7,0 9.75,4"
       id="path766"
       style="fill:#ff0000;stroke:#000000;stroke-width:2;stroke-linejoin:bevel;stroke-dasharray:none;stroke-opacity:1;paint-order:markers fill stroke" />
  </g>
</svg>
